<svg width="505" height="257" viewBox="0 0 505 257" fill="none" xmlns="http://www.w3.org/2000/svg">
<path d="M292.277 71.9181C290.234 70.6798 287.89 70.025 285.5 70.025C283.11 70.025 280.766 70.6798 278.723 71.9181L248.207 90.4135C246.284 91.5787 244.694 93.22 243.59 95.179C242.487 97.1379 241.907 99.3483 241.906 101.597V131.403C241.907 133.652 242.487 135.862 243.59 137.821C244.694 139.78 246.284 141.421 248.207 142.587L278.723 161.082C280.766 162.32 283.11 162.975 285.5 162.975C287.89 162.975 290.234 162.32 292.277 161.082L322.793 142.587C324.716 141.421 326.306 139.78 327.41 137.821C328.513 135.862 329.093 133.652 329.094 131.403V101.597C329.093 99.3483 328.513 97.1379 327.41 95.179C326.306 93.22 324.716 91.5787 322.793 90.4135L292.277 71.9181Z" fill="#2C4363"/>
<path d="M296.321 108.222C296.184 108.202 296.047 108.202 295.91 108.222C292.876 108.124 290.469 105.638 290.469 102.585C290.469 99.4735 292.994 96.9293 296.125 96.9293C299.237 96.9293 301.781 99.4539 301.781 102.585C301.762 105.638 299.354 108.124 296.321 108.222Z" fill="white"/>
<path d="M302.706 121.785C300.514 123.253 297.441 123.801 294.603 123.429C295.347 121.824 295.739 120.043 295.758 118.164C295.758 116.207 295.328 114.348 294.506 112.724C297.402 112.332 300.475 112.88 302.686 114.348C305.778 116.383 305.778 119.73 302.706 121.785Z" fill="white"/>
<path d="M274.619 108.222C274.756 108.202 274.893 108.202 275.03 108.222C278.063 108.124 280.471 105.638 280.471 102.585C280.471 99.4539 277.946 96.9293 274.815 96.9293C271.703 96.9293 269.178 99.4539 269.178 102.585C269.178 105.638 271.586 108.124 274.619 108.222Z" fill="white"/>
<path d="M274.836 118.165C274.836 120.063 275.247 121.864 275.991 123.488C273.231 123.782 270.354 123.194 268.241 121.805C265.149 119.75 265.149 116.403 268.241 114.348C270.335 112.939 273.29 112.372 276.069 112.685C275.267 114.329 274.836 116.188 274.836 118.165Z" fill="white"/>
<path d="M285.736 124.074C285.58 124.054 285.404 124.054 285.228 124.074C281.627 123.956 278.75 121.001 278.75 117.361C278.769 113.643 281.764 110.629 285.502 110.629C289.22 110.629 292.234 113.643 292.234 117.361C292.214 121.001 289.357 123.956 285.736 124.074Z" fill="white"/>
<path d="M279.376 128.126C276.421 130.103 276.421 133.352 279.376 135.309C282.742 137.559 288.261 137.559 291.627 135.309C294.582 133.332 294.582 130.083 291.627 128.126C288.281 125.876 282.762 125.876 279.376 128.126Z" fill="white"/>
<path d="M307.684 143.618L306.002 151.608L313.992 153.29L315.674 145.3L307.684 143.618ZM310 149L340 195L341.675 193.907L311.675 147.907L310 149Z" fill="#2C4363"/>
<path d="M360.101 188.444C358.563 187.512 356.799 187.019 355 187.019C353.201 187.019 351.437 187.512 349.899 188.444L326.93 202.365C325.483 203.242 324.286 204.477 323.455 205.952C322.624 207.426 322.188 209.09 322.188 210.782V233.217C322.188 234.91 322.624 236.574 323.455 238.048C324.286 239.523 325.483 240.758 326.93 241.635L349.899 255.556C351.437 256.488 353.201 256.981 355 256.981C356.799 256.981 358.563 256.488 360.101 255.556L383.07 241.635C384.517 240.758 385.714 239.523 386.545 238.048C387.376 236.574 387.812 234.91 387.812 233.217V210.782C387.812 209.09 387.376 207.426 386.545 205.952C385.714 204.477 384.517 203.242 383.07 202.365L360.101 188.444Z" fill="#2C4363"/>
<path d="M357.946 210.215C357.946 211.843 356.627 213.162 355 213.162C353.373 213.162 352.054 211.843 352.054 210.215C352.054 208.588 353.373 207.269 355 207.269C356.627 207.269 357.946 208.588 357.946 210.215Z" stroke="white" stroke-width="2.2096"/>
<path d="M355 226.419L355.959 225.871C355.763 225.527 355.397 225.314 355 225.314C354.604 225.314 354.238 225.527 354.041 225.871L355 226.419ZM352.563 218.055C353.17 218.119 353.713 217.679 353.777 217.073C353.842 216.466 353.402 215.922 352.795 215.858L352.563 218.055ZM357.205 215.858C356.599 215.922 356.159 216.466 356.223 217.073C356.287 217.679 356.831 218.119 357.437 218.055L357.205 215.858ZM345.883 221.353L349.087 222.421L349.786 220.325L346.582 219.256L345.883 221.353ZM349.575 223.454L347.738 228.229L349.8 229.022L351.637 224.247L349.575 223.454ZM363.419 219.256L360.214 220.325L360.913 222.421L364.117 221.353L363.419 219.256ZM358.363 224.247L360.2 229.022L362.262 228.229L360.426 223.454L358.363 224.247ZM353.638 231.029L355.959 226.967L354.041 225.871L351.72 229.933L353.638 231.029ZM362.35 214.876L359.555 215.475L360.018 217.635L362.813 217.036L362.35 214.876ZM350.446 215.475L347.65 214.876L347.187 217.036L349.983 217.635L350.446 215.475ZM354.041 226.967L356.362 231.029L358.281 229.933L355.959 225.871L354.041 226.967ZM359.555 215.475C359.398 215.508 359.324 215.524 359.252 215.539L359.7 217.703C359.781 217.686 359.864 217.668 360.018 217.635L359.555 215.475ZM349.983 217.635C350.137 217.668 350.219 217.686 350.301 217.703L350.748 215.539C350.676 215.524 350.603 215.508 350.446 215.475L349.983 217.635ZM350.795 232.679C351.97 232.679 353.055 232.05 353.638 231.029L351.72 229.933C351.53 230.265 351.177 230.47 350.795 230.47V232.679ZM360.2 229.022C360.468 229.72 359.953 230.47 359.206 230.47V232.679C361.504 232.679 363.087 230.374 362.262 228.229L360.2 229.022ZM360.214 220.325C359.887 220.434 359.54 220.542 359.257 220.716L360.418 222.596C360.404 222.604 360.416 222.595 360.501 222.562C360.59 222.529 360.711 222.488 360.913 222.421L360.214 220.325ZM360.426 223.454C360.349 223.255 360.304 223.136 360.273 223.045C360.244 222.959 360.244 222.944 360.246 222.96L358.057 223.259C358.102 223.588 358.24 223.925 358.363 224.247L360.426 223.454ZM359.257 220.716C358.389 221.252 357.919 222.249 358.057 223.259L360.246 222.96C360.226 222.815 360.294 222.673 360.418 222.596L359.257 220.716ZM364.207 218.163C364.207 218.659 363.889 219.1 363.419 219.256L364.117 221.353C365.49 220.895 366.416 219.61 366.416 218.163H364.207ZM347.738 228.229C346.913 230.374 348.496 232.679 350.795 232.679V230.47C350.047 230.47 349.532 229.72 349.8 229.022L347.738 228.229ZM349.087 222.421C349.289 222.488 349.41 222.529 349.499 222.562C349.585 222.595 349.596 222.604 349.583 222.596L350.743 220.716C350.461 220.542 350.113 220.434 349.786 220.325L349.087 222.421ZM351.637 224.247C351.761 223.925 351.898 223.588 351.943 223.259L349.754 222.96C349.756 222.944 349.757 222.959 349.727 223.045C349.696 223.136 349.651 223.255 349.575 223.454L351.637 224.247ZM349.583 222.596C349.707 222.673 349.774 222.815 349.754 222.96L351.943 223.259C352.081 222.249 351.611 221.252 350.743 220.716L349.583 222.596ZM343.584 218.163C343.584 219.61 344.51 220.895 345.883 221.353L346.582 219.256C346.111 219.1 345.793 218.659 345.793 218.163H343.584ZM345.793 218.163C345.793 217.429 346.47 216.882 347.187 217.036L347.65 214.876C345.557 214.427 343.584 216.023 343.584 218.163H345.793ZM356.362 231.029C356.945 232.05 358.03 232.679 359.206 232.679V230.47C358.823 230.47 358.47 230.265 358.281 229.933L356.362 231.029ZM366.416 218.163C366.416 216.023 364.443 214.427 362.35 214.876L362.813 217.036C363.53 216.882 364.207 217.429 364.207 218.163H366.416ZM352.795 215.858C352.109 215.785 351.426 215.679 350.748 215.539L350.301 217.703C351.05 217.858 351.805 217.975 352.563 218.055L352.795 215.858ZM359.252 215.539C358.574 215.679 357.891 215.785 357.205 215.858L357.437 218.055C358.195 217.975 358.95 217.858 359.7 217.703L359.252 215.539Z" fill="white"/>
<path d="M365.98 226.419C368.312 227.592 369.731 229.141 369.731 230.838C369.731 231.941 369.133 232.98 368.075 233.895M344.02 226.419C341.688 227.592 340.269 229.141 340.269 230.838C340.269 234.499 346.865 237.467 355 237.467C357.683 237.467 360.199 237.144 362.365 236.58" stroke="white" stroke-width="2.2096" stroke-linecap="round"/>
<path d="M93.1012 174.444C91.563 173.512 89.7987 173.019 88 173.019C86.2013 173.019 84.4371 173.512 82.8988 174.444L59.93 188.365C58.4826 189.242 57.2857 190.477 56.455 191.952C55.6243 193.426 55.1877 195.09 55.1875 196.782V219.217C55.1877 220.91 55.6243 222.574 56.455 224.048C57.2857 225.523 58.4826 226.758 59.93 227.635L82.8988 241.556C84.4371 242.488 86.2013 242.981 88 242.981C89.7987 242.981 91.563 242.488 93.1012 241.556L116.07 227.635C117.517 226.758 118.714 225.523 119.545 224.048C120.376 222.574 120.812 220.91 120.812 219.217V196.782C120.812 195.09 120.376 193.426 119.545 191.952C118.714 190.477 117.517 189.242 116.07 188.365L93.1012 174.444Z" fill="#2C4363"/>
<path d="M90.9462 196.215C90.9462 197.843 89.6272 199.162 88.0001 199.162C86.3729 199.162 85.054 197.843 85.054 196.215C85.054 194.588 86.3729 193.269 88.0001 193.269C89.6272 193.269 90.9462 194.588 90.9462 196.215Z" stroke="white" stroke-width="2.2096"/>
<path d="M88.0001 212.419L88.9594 211.871C88.7627 211.527 88.3965 211.314 88.0001 211.314C87.6037 211.314 87.2375 211.527 87.0408 211.871L88.0001 212.419ZM85.5628 204.055C86.1695 204.119 86.7134 203.679 86.7775 203.073C86.8415 202.466 86.4017 201.922 85.7949 201.858L85.5628 204.055ZM90.2053 201.858C89.5985 201.922 89.1587 202.466 89.2228 203.073C89.2868 203.679 89.8307 204.119 90.4374 204.055L90.2053 201.858ZM78.8828 207.353L82.0871 208.421L82.7858 206.325L79.5815 205.256L78.8828 207.353ZM82.5745 209.454L80.7379 214.229L82.8003 215.022L84.6369 210.247L82.5745 209.454ZM96.4187 205.256L93.2143 206.325L93.9131 208.421L97.1175 207.353L96.4187 205.256ZM91.3634 210.247L93.2 215.022L95.2623 214.229L93.4257 209.454L91.3634 210.247ZM86.6381 217.029L88.9594 212.967L87.0408 211.871L84.7196 215.933L86.6381 217.029ZM95.3498 200.876L92.5545 201.475L93.0175 203.635L95.8128 203.036L95.3498 200.876ZM83.4456 201.475L80.6504 200.876L80.1874 203.036L82.9827 203.635L83.4456 201.475ZM87.0408 212.967L89.3621 217.029L91.2806 215.933L88.9594 211.871L87.0408 212.967ZM92.5545 201.475C92.3976 201.508 92.3244 201.524 92.2521 201.539L92.6996 203.703C92.7814 203.686 92.8636 203.668 93.0175 203.635L92.5545 201.475ZM82.9827 203.635C83.1366 203.668 83.2188 203.686 83.3006 203.703L83.7482 201.539C83.6758 201.524 83.6025 201.508 83.4456 201.475L82.9827 203.635ZM83.7946 218.679C84.9698 218.679 86.0549 218.05 86.6381 217.029L84.7196 215.933C84.5299 216.265 84.1769 216.47 83.7946 216.47V218.679ZM93.2 215.022C93.4684 215.72 92.9533 216.47 92.2056 216.47V218.679C94.504 218.679 96.0874 216.374 95.2623 214.229L93.2 215.022ZM93.2143 206.325C92.8874 206.434 92.5395 206.542 92.257 206.716L93.4176 208.596C93.4045 208.604 93.4155 208.595 93.5008 208.562C93.5904 208.529 93.7112 208.488 93.9131 208.421L93.2143 206.325ZM93.4257 209.454C93.3492 209.255 93.3037 209.136 93.2729 209.045C93.2436 208.959 93.2441 208.944 93.2461 208.96L91.0569 209.259C91.1019 209.588 91.2397 209.925 91.3634 210.247L93.4257 209.454ZM92.257 206.716C91.3892 207.252 90.9188 208.249 91.0569 209.259L93.2461 208.96C93.2264 208.815 93.2936 208.673 93.4176 208.596L92.257 206.716ZM97.2068 204.163C97.2068 204.659 96.8893 205.1 96.4187 205.256L97.1175 207.353C98.4904 206.895 99.4164 205.61 99.4164 204.163H97.2068ZM80.7379 214.229C79.9129 216.374 81.4963 218.679 83.7946 218.679V216.47C83.0469 216.47 82.5319 215.72 82.8003 215.022L80.7379 214.229ZM82.0871 208.421C82.2891 208.488 82.4098 208.529 82.4994 208.562C82.5847 208.595 82.5957 208.604 82.5826 208.596L83.7432 206.716C83.4607 206.542 83.1128 206.434 82.7858 206.325L82.0871 208.421ZM84.6369 210.247C84.7606 209.925 84.8983 209.588 84.9433 209.259L82.7541 208.96C82.7561 208.944 82.7566 208.959 82.7273 209.045C82.6965 209.136 82.651 209.255 82.5745 209.454L84.6369 210.247ZM82.5826 208.596C82.7066 208.673 82.7738 208.815 82.7541 208.96L84.9433 209.259C85.0814 208.249 84.611 207.252 83.7432 206.716L82.5826 208.596ZM76.5839 204.163C76.5839 205.61 77.5099 206.895 78.8828 207.353L79.5815 205.256C79.1109 205.1 78.7935 204.659 78.7935 204.163H76.5839ZM78.7935 204.163C78.7935 203.429 79.47 202.882 80.1874 203.036L80.6504 200.876C78.5575 200.427 76.5839 202.023 76.5839 204.163H78.7935ZM89.3621 217.029C89.9453 218.05 91.0303 218.679 92.2056 218.679V216.47C91.8233 216.47 91.4704 216.265 91.2806 215.933L89.3621 217.029ZM99.4164 204.163C99.4164 202.023 97.4427 200.427 95.3498 200.876L95.8128 203.036C96.5302 202.882 97.2068 203.429 97.2068 204.163H99.4164ZM85.7949 201.858C85.1091 201.785 84.426 201.679 83.7482 201.539L83.3006 203.703C84.0498 203.858 84.8048 203.975 85.5628 204.055L85.7949 201.858ZM92.2521 201.539C91.5742 201.679 90.8911 201.785 90.2053 201.858L90.4374 204.055C91.1955 203.975 91.9504 203.858 92.6996 203.703L92.2521 201.539Z" fill="white"/>
<path d="M98.9798 212.419C101.312 213.592 102.731 215.141 102.731 216.838C102.731 217.941 102.133 218.98 101.075 219.895M77.0203 212.419C74.6877 213.592 73.2694 215.141 73.2694 216.838C73.2694 220.499 79.8645 223.467 88 223.467C90.6831 223.467 93.1986 223.144 95.3654 222.58" stroke="white" stroke-width="2.2096" stroke-linecap="round"/>
<line x1="72.1452" y1="181.519" x2="55.1452" y2="153.519" stroke="#2C4363" stroke-width="2"/>
<line x1="56.5692" y1="153.822" x2="4.56921" y2="189.822" stroke="#2C4363" stroke-width="2"/>
<path d="M306.1 81.5648L335.1 21.5648" stroke="#2C4363" stroke-width="2" stroke-dasharray="5 5"/>
<circle cx="3" cy="191" r="2" stroke="#2C4363" stroke-width="2"/>
<rect x="379.5" y="0.5" width="125" height="42" rx="9.5" stroke="#4D86D6" stroke-dasharray="2 2"/>
<g clip-path="url(#clip0_133_39)">
<path d="M404.613 6.61874C403.976 6.21926 403.245 6.00806 402.5 6.00806C401.755 6.00806 401.024 6.21926 400.387 6.61874L390.871 12.585C390.271 12.9609 389.776 13.4903 389.431 14.1222C389.087 14.7541 388.906 15.4672 388.906 16.1925V25.8075C388.906 26.5328 389.087 27.2458 389.431 27.8777C389.776 28.5097 390.271 29.0391 390.871 29.415L400.387 35.3812C401.024 35.7807 401.755 35.9919 402.5 35.9919C403.245 35.9919 403.976 35.7807 404.613 35.3812L414.129 29.415C414.729 29.0391 415.224 28.5097 415.569 27.8777C415.913 27.2458 416.094 26.5328 416.094 25.8075V16.1925C416.094 15.4672 415.913 14.7541 415.569 14.1222C415.224 13.4903 414.729 12.9609 414.129 12.585L404.613 6.61874Z" fill="#2C4363"/>
<path d="M401.396 14.236C400.598 14.2499 399.877 14.7423 399.551 15.5037L403.455 16.7238C403.627 15.6647 403.012 14.6378 402.022 14.3262C401.845 14.2706 401.659 14.2401 401.473 14.236H401.396ZM399.402 16.0139C399.227 17.076 399.843 18.1058 400.835 18.4165C401.831 18.7273 402.892 18.2183 403.31 17.2328L399.402 16.0139ZM406.997 17.3246C406.273 17.3275 405.504 17.6886 404.923 18.5379L401.353 23.7728C400.395 25.1755 400.812 26.6433 401.756 27.3358C402.703 28.0312 404.176 27.9513 405.135 26.5486L408.702 21.3166C409.66 19.911 409.243 18.4461 408.299 17.7507C407.944 17.4903 407.518 17.3394 407.068 17.3246H406.997ZM406.945 17.8365C406.983 17.8365 407.02 17.8365 407.054 17.8395C407.4 17.8543 407.726 17.9815 408.001 18.1857C408.736 18.7243 409.105 19.7985 408.279 21.0089L406.433 23.7166C405.409 23.4325 404.093 22.4648 403.496 21.5563L405.346 18.8456C405.83 18.1384 406.405 17.8484 406.945 17.8365ZM397.787 20.0915C397.512 20.0944 397.24 20.1536 396.988 20.269C396.041 20.6981 395.548 21.7931 395.837 22.8229L399.576 21.1332C399.202 20.4792 398.521 20.0826 397.787 20.0915ZM399.78 21.6185L396.041 23.3112C396.569 24.2404 397.68 24.6133 398.632 24.1842C399.582 23.7521 400.074 22.6513 399.78 21.6185Z" fill="white"/>
</g>
<path d="M430.221 25H427.895V18.3262H426.26C426.232 18.6465 426.195 19.0078 426.148 19.4102C426.102 19.8086 426.049 20.2188 425.99 20.6406C425.936 21.0586 425.877 21.4609 425.814 21.8477C425.752 22.2344 425.688 22.5723 425.621 22.8613C425.52 23.334 425.369 23.7383 425.17 24.0742C424.975 24.4102 424.707 24.668 424.367 24.8477C424.027 25.0273 423.59 25.1172 423.055 25.1172C422.883 25.1172 422.723 25.1055 422.574 25.082C422.426 25.0586 422.283 25.0273 422.146 24.9883V23.2012C422.252 23.2363 422.35 23.2656 422.439 23.2891C422.529 23.3086 422.623 23.3184 422.721 23.3184C422.85 23.3184 422.963 23.2812 423.061 23.207C423.162 23.1328 423.256 22.9707 423.342 22.7207C423.432 22.4707 423.52 22.0859 423.605 21.5664C423.637 21.3984 423.678 21.1484 423.729 20.8164C423.779 20.4805 423.836 20.084 423.898 19.627C423.965 19.1699 424.031 18.6699 424.098 18.127C424.168 17.584 424.236 17.0195 424.303 16.4336H430.221V25ZM434.932 18.2441C435.576 18.2441 436.133 18.3574 436.602 18.584C437.07 18.8066 437.432 19.1426 437.686 19.5918C437.939 20.041 438.066 20.6035 438.066 21.2793V22.2988H433.971C433.99 22.6465 434.119 22.9316 434.357 23.1543C434.6 23.377 434.955 23.4883 435.424 23.4883C435.838 23.4883 436.217 23.4473 436.561 23.3652C436.908 23.2832 437.266 23.1562 437.633 22.9844V24.6309C437.312 24.7988 436.963 24.9219 436.584 25C436.205 25.0781 435.727 25.1172 435.148 25.1172C434.48 25.1172 433.883 24.998 433.355 24.7598C432.828 24.5215 432.412 24.1523 432.107 23.6523C431.807 23.1523 431.656 22.5098 431.656 21.7246C431.656 20.9277 431.793 20.2734 432.066 19.7617C432.34 19.2461 432.723 18.8652 433.215 18.6191C433.707 18.3691 434.279 18.2441 434.932 18.2441ZM435.014 19.8027C434.744 19.8027 434.518 19.8887 434.334 20.0605C434.154 20.2285 434.049 20.4941 434.018 20.8574H435.986C435.982 20.6621 435.943 20.4844 435.869 20.3242C435.795 20.1641 435.686 20.0371 435.541 19.9434C435.4 19.8496 435.225 19.8027 435.014 19.8027ZM444.008 18.3613H446.539L444.055 21.543L446.732 25H444.113L441.652 21.6309V25H439.361V18.3613H441.652V21.5781L444.008 18.3613ZM450.711 18.2441C451.551 18.2441 452.207 18.4531 452.68 18.8711C453.152 19.2852 453.389 19.877 453.389 20.6465V25H451.801L451.361 24.1211H451.314C451.127 24.3555 450.934 24.5469 450.734 24.6953C450.539 24.8398 450.314 24.9453 450.061 25.0117C449.807 25.082 449.496 25.1172 449.129 25.1172C448.746 25.1172 448.402 25.0391 448.098 24.8828C447.793 24.7266 447.553 24.4902 447.377 24.1738C447.201 23.8574 447.113 23.457 447.113 22.9727C447.113 22.2617 447.359 21.7344 447.852 21.3906C448.344 21.0469 449.057 20.8535 449.99 20.8105L451.098 20.7754V20.6816C451.098 20.3848 451.023 20.1738 450.875 20.0488C450.73 19.9238 450.535 19.8613 450.289 19.8613C450.027 19.8613 449.734 19.9082 449.41 20.002C449.09 20.0918 448.768 20.209 448.443 20.3535L447.781 18.8418C448.164 18.6465 448.598 18.498 449.082 18.3965C449.566 18.2949 450.109 18.2441 450.711 18.2441ZM451.109 22.0352L450.582 22.0586C450.16 22.0742 449.863 22.1484 449.691 22.2812C449.523 22.4102 449.439 22.5957 449.439 22.8379C449.439 23.0645 449.5 23.2324 449.621 23.3418C449.742 23.4473 449.902 23.5 450.102 23.5C450.379 23.5 450.615 23.4121 450.811 23.2363C451.01 23.0605 451.109 22.832 451.109 22.5508V22.0352ZM459.002 18.2441C459.736 18.2441 460.312 18.5391 460.73 19.1289C461.148 19.7148 461.357 20.5605 461.357 21.666C461.357 22.4199 461.252 23.0547 461.041 23.5703C460.83 24.082 460.541 24.4688 460.174 24.7305C459.811 24.9883 459.396 25.1172 458.932 25.1172C458.619 25.1172 458.354 25.0781 458.135 25C457.92 24.9219 457.74 24.8242 457.596 24.707C457.455 24.5898 457.336 24.4707 457.238 24.3496H457.168C457.188 24.502 457.203 24.666 457.215 24.8418C457.23 25.0176 457.238 25.2227 457.238 25.457V27.8828H454.947V18.3613H456.811L457.133 19.2051H457.238C457.348 19.0332 457.48 18.875 457.637 18.7305C457.793 18.582 457.982 18.4648 458.205 18.3789C458.432 18.2891 458.697 18.2441 459.002 18.2441ZM458.141 20.043C457.918 20.043 457.742 20.0957 457.613 20.2012C457.484 20.3066 457.391 20.4668 457.332 20.6816C457.277 20.8926 457.246 21.1562 457.238 21.4727V21.6543C457.238 22.0059 457.266 22.3027 457.32 22.5449C457.375 22.7832 457.469 22.9648 457.602 23.0898C457.734 23.2109 457.918 23.2715 458.152 23.2715C458.344 23.2715 458.504 23.2168 458.633 23.1074C458.762 22.998 458.859 22.8242 458.926 22.5859C458.992 22.3477 459.025 22.0332 459.025 21.6426C459.025 21.0605 458.949 20.6484 458.797 20.4062C458.648 20.1641 458.43 20.043 458.141 20.043ZM465.693 25.1172C465.021 25.1172 464.438 24.998 463.941 24.7598C463.445 24.5176 463.061 24.1465 462.787 23.6465C462.518 23.1426 462.383 22.498 462.383 21.7129C462.383 20.9082 462.533 20.25 462.834 19.7383C463.139 19.2266 463.555 18.8496 464.082 18.6074C464.609 18.3652 465.207 18.2441 465.875 18.2441C466.281 18.2441 466.666 18.2891 467.029 18.3789C467.396 18.4688 467.736 18.5918 468.049 18.748L467.375 20.4414C467.102 20.3203 466.846 20.2246 466.607 20.1543C466.373 20.0801 466.129 20.043 465.875 20.043C465.645 20.043 465.441 20.1035 465.266 20.2246C465.09 20.3457 464.953 20.5293 464.855 20.7754C464.758 21.0176 464.709 21.3262 464.709 21.7012C464.709 22.084 464.758 22.3926 464.855 22.627C464.957 22.8613 465.096 23.0312 465.271 23.1367C465.451 23.2422 465.656 23.2949 465.887 23.2949C466.219 23.2949 466.549 23.2441 466.877 23.1426C467.209 23.0371 467.523 22.8926 467.82 22.709V24.5312C467.547 24.7109 467.238 24.8535 466.895 24.959C466.551 25.0645 466.15 25.1172 465.693 25.1172ZM475.297 20.0664H473.111V25H470.82V20.0664H468.635V18.3613H475.297V20.0664ZM482.527 20.0781C482.527 20.4258 482.422 20.7363 482.211 21.0098C482.004 21.2793 481.686 21.4492 481.256 21.5195V21.5664C481.729 21.6211 482.092 21.7852 482.346 22.0586C482.604 22.3281 482.732 22.6758 482.732 23.1016C482.732 23.4336 482.643 23.7441 482.463 24.0332C482.287 24.3223 481.975 24.5566 481.525 24.7363C481.076 24.9121 480.445 25 479.633 25H476.381V18.3613H479.645C480.312 18.3613 480.857 18.4277 481.279 18.5605C481.705 18.6895 482.02 18.8828 482.223 19.1406C482.426 19.3945 482.527 19.707 482.527 20.0781ZM480.4 22.8789C480.4 22.707 480.344 22.5684 480.23 22.4629C480.121 22.3535 479.906 22.2988 479.586 22.2988H478.672V23.5H479.562C479.863 23.5 480.078 23.4434 480.207 23.3301C480.336 23.2129 480.4 23.0625 480.4 22.8789ZM480.248 20.3828C480.248 20.2109 480.193 20.082 480.084 19.9961C479.975 19.9062 479.816 19.8613 479.609 19.8613H478.672V20.8574H479.527C479.77 20.8574 479.949 20.8125 480.066 20.7227C480.188 20.6328 480.248 20.5195 480.248 20.3828ZM487.168 18.2441C488.008 18.2441 488.664 18.4531 489.137 18.8711C489.609 19.2852 489.846 19.877 489.846 20.6465V25H488.258L487.818 24.1211H487.771C487.584 24.3555 487.391 24.5469 487.191 24.6953C486.996 24.8398 486.771 24.9453 486.518 25.0117C486.264 25.082 485.953 25.1172 485.586 25.1172C485.203 25.1172 484.859 25.0391 484.555 24.8828C484.25 24.7266 484.01 24.4902 483.834 24.1738C483.658 23.8574 483.57 23.457 483.57 22.9727C483.57 22.2617 483.816 21.7344 484.309 21.3906C484.801 21.0469 485.514 20.8535 486.447 20.8105L487.555 20.7754V20.6816C487.555 20.3848 487.48 20.1738 487.332 20.0488C487.188 19.9238 486.992 19.8613 486.746 19.8613C486.484 19.8613 486.191 19.9082 485.867 20.002C485.547 20.0918 485.225 20.209 484.9 20.3535L484.238 18.8418C484.621 18.6465 485.055 18.498 485.539 18.3965C486.023 18.2949 486.566 18.2441 487.168 18.2441ZM487.566 22.0352L487.039 22.0586C486.617 22.0742 486.32 22.1484 486.148 22.2812C485.98 22.4102 485.896 22.5957 485.896 22.8379C485.896 23.0645 485.957 23.2324 486.078 23.3418C486.199 23.4473 486.359 23.5 486.559 23.5C486.836 23.5 487.072 23.4121 487.268 23.2363C487.467 23.0605 487.566 22.832 487.566 22.5508V22.0352Z" fill="#A3B3BC"/>
<path d="M379.983 21.8145L389.893 26.7725L390.107 15.2275L380.02 19.8148L379.983 21.8145ZM387.315 19.95C386.763 19.9398 386.307 20.3792 386.297 20.9313C386.286 21.4835 386.726 21.9395 387.278 21.9497L387.315 19.95ZM381.871 21.8495C382.423 21.8597 382.879 21.4204 382.889 20.8682C382.9 20.316 382.46 19.86 381.908 19.8498L381.871 21.8495ZM376.501 19.7496C375.949 19.7393 375.493 20.1787 375.483 20.7309C375.473 21.283 375.912 21.739 376.464 21.7492L376.501 19.7496ZM371.057 21.649C371.609 21.6592 372.065 21.2199 372.075 20.6677C372.086 20.1155 371.646 19.6596 371.094 19.6493L371.057 21.649ZM365.687 19.5491C365.135 19.5388 364.679 19.9782 364.669 20.5304C364.659 21.0826 365.098 21.5385 365.65 21.5487L365.687 19.5491ZM360.243 21.4485C360.795 21.4587 361.251 21.0194 361.262 20.4672C361.272 19.915 360.832 19.4591 360.28 19.4488L360.243 21.4485ZM354.873 19.3486C354.321 19.3383 353.865 19.7777 353.855 20.3299C353.845 20.8821 354.284 21.338 354.836 21.3482L354.873 19.3486ZM349.429 21.248C349.981 21.2582 350.437 20.8189 350.448 20.2667C350.458 19.7145 350.019 19.2586 349.466 19.2483L349.429 21.248ZM344.059 19.1481C343.507 19.1379 343.051 19.5772 343.041 20.1294C343.031 20.6816 343.47 21.1375 344.022 21.1478L344.059 19.1481ZM338.615 21.0475C339.168 21.0577 339.623 20.6184 339.634 20.0662C339.644 19.514 339.205 19.0581 338.652 19.0479L338.615 21.0475ZM381.908 19.8498L376.501 19.7496L376.464 21.7492L381.871 21.8495L381.908 19.8498ZM371.094 19.6493L365.687 19.5491L365.65 21.5487L371.057 21.649L371.094 19.6493ZM360.28 19.4488L354.873 19.3486L354.836 21.3482L360.243 21.4485L360.28 19.4488ZM349.466 19.2483L344.059 19.1481L344.022 21.1478L349.429 21.248L349.466 19.2483ZM338.652 19.0479L335.949 18.9977L335.912 20.9974L338.615 21.0475L338.652 19.0479Z" fill="#2C4363"/>
<defs>
<clipPath id="clip0_133_39">
<rect width="29" height="30" fill="white" transform="translate(388 6)"/>
</clipPath>
</defs>
</svg>
